<?xml version="1.0"?>
<svg xmlns="http://www.w3.org/2000/svg" id="Capa_1" enable-background="new 0 0 512 512" height="512px" viewBox="0 0 512 512" width="512px"><g><g><path d="m136.978 472c27.817 0 54.404-5.654 71.382-22.632 29.372-29.372 29.268-76.816 0-106.055-28.301-28.33-77.754-28.33-106.055 0-38.991 38.978-70.533 68.876-102.305 98.804l23.174 8.203c8.979 3.179 63.428 21.68 113.804 21.68z" data-original="#000000" class="active-path" data-old_color="#000000" fill="#999999"/><path d="m253.969 361.337 43.641-43.641-63.636-63.629-44.097 44.097c14.951 5.057 28.729 12.958 39.708 23.954 11.23 11.213 19.233 24.671 24.384 39.219z" data-original="#000000" class="active-path" data-old_color="#000000" fill="#999999"/><path d="m247.11 123.248h272.967v89.99h-272.967z" transform="matrix(.707 -.707 .707 .707 -6.605 320.541)" data-original="#000000" class="active-path" data-old_color="#000000" fill="#999999"/></g></g> </svg>
