<?xml version="1.0"?>
<svg xmlns="http://www.w3.org/2000/svg" id="_x33_0" enable-background="new 0 0 64 64" height="512px" viewBox="0 0 64 64" width="512px" class=""><g><g><path d="m28.026 13c-.635-.838-1.026-1.87-1.026-3s.391-2.162 1.026-3h-11.846c.507.838.82 1.87.82 3s-.313 2.162-.82 3zm-6.026-4c.552 0 1 .448 1 1s-.448 1-1 1-1-.448-1-1 .448-1 1-1z" data-original="#000000" class="" data-old_color="#000000" fill="#333333"/><path d="m41.442 43.144c1.005-1.005 1.558-2.341 1.558-3.762 0-1.757-.86-3.389-2.304-4.382h-3.163c.935 1.248 1.467 2.774 1.467 4.382 0 1.956-.761 3.794-2.144 5.176l-.442.442h3.172z" data-original="#000000" class="" data-old_color="#000000" fill="#333333"/><ellipse cx="13" cy="10" rx="2" ry="3" data-original="#000000" class="" data-old_color="#000000" fill="#333333"/><path d="m24.414 45h3.172l-.442-.442c-1.383-1.382-2.144-3.22-2.144-5.176 0-1.608.532-3.134 1.467-4.382h-3.163c-1.444.993-2.304 2.625-2.304 4.382 0 1.421.553 2.757 1.558 3.762z" data-original="#000000" class="" data-old_color="#000000" fill="#333333"/><path d="m47 3h-30c-1.304 0-2.416.836-2.829 2h35.657c-.412-1.164-1.524-2-2.828-2z" data-original="#000000" class="" data-old_color="#000000" fill="#333333"/><path d="m25 47h14v6h-14z" data-original="#000000" class="" data-old_color="#000000" fill="#333333"/><circle cx="32" cy="10" r="3" data-original="#000000" class="" data-old_color="#000000" fill="#333333"/><path d="m47.82 13c-.507-.838-.82-1.87-.82-3s.313-2.162.82-3h-11.846c.635.838 1.026 1.87 1.026 3s-.391 2.162-1.026 3zm-5.82-4c.552 0 1 .448 1 1s-.448 1-1 1-1-.448-1-1 .448-1 1-1z" data-original="#000000" class="" data-old_color="#000000" fill="#333333"/><ellipse cx="51" cy="10" rx="2" ry="3" data-original="#000000" class="" data-old_color="#000000" fill="#333333"/><path d="m49.288 22.718-2.288-3.051-3 4-1.18-1.573c-.59 4.233-2.651 8.076-5.834 10.907h3.761c4.211-2.174 7.241-5.895 8.541-10.283z" data-original="#000000" class="" data-old_color="#000000" fill="#333333"/><path d="m50 17.82v-2.82h-36v2.82c0 .779.055 1.548.156 2.305l2.844-3.792 3 4 3-4 3 4 3-4 3 4 3-4 3 4 3-4 3 4 3-4 2.844 3.791c.101-.756.156-1.525.156-2.304z" data-original="#000000" class="" data-old_color="#000000" fill="#333333"/><path d="m20 23.667-3-4-2.288 3.051c1.301 4.389 4.33 8.11 8.542 10.282h3.761c-3.183-2.831-5.245-6.674-5.834-10.907z" data-original="#000000" class="" data-old_color="#000000" fill="#333333"/><path d="m24.362 55-5.362 4.469v1.531h26v-1.531l-5.362-4.469z" data-original="#000000" class="" data-old_color="#000000" fill="#333333"/><path d="m29.311 35c-1.447.994-2.311 2.624-2.311 4.382 0 1.421.553 2.757 1.558 3.762l1.856 1.856h3.172l1.856-1.856c1.005-1.005 1.558-2.341 1.558-3.762 0-1.758-.864-3.388-2.311-4.382zm2.689 8-3-3 3-3 3 3z" data-original="#000000" class="" data-old_color="#000000" fill="#333333"/><path d="m38 23.667-3-4-3 4-3-4-3 4-2.997-3.996c.035 5.427 2.753 10.381 7.299 13.329h3.395c4.546-2.948 7.264-7.902 7.299-13.329z" data-original="#000000" class="" data-old_color="#000000" fill="#333333"/><path d="m55.06 20.368 2.513-.838c3.246-1.082 5.427-4.108 5.427-7.53 0-2.757-2.243-5-5.083-5-2.711 0-4.917 2.206-4.917 4.917v.116c0 .796.304 1.542.857 2.1.555.559 1.294.867 2.083.867 1.688 0 3.06-1.373 3.06-3.06v-.94h-2v.94c0 .584-.476 1.06-1.06 1.06-.251 0-.486-.098-.662-.275-.179-.182-.278-.427-.278-.692v-.116c0-1.609 1.308-2.917 3-2.917 1.654 0 3 1.346 3 3 0 2.56-1.631 4.823-4.06 5.632l-2.513.838c-3.246 1.082-5.427 4.108-5.427 7.53 0 2.757 2.243 5 5 5s5-2.243 5-5c0-1.654-1.346-3-3-3s-3 1.346-3 3v1h2v-1c0-.551.449-1 1-1s1 .449 1 1c0 1.654-1.346 3-3 3s-3-1.346-3-3c0-2.56 1.631-4.823 4.06-5.632z" data-original="#000000" class="" data-old_color="#000000" fill="#333333"/><path d="m9.573 18.47-2.513-.838c-2.429-.809-4.06-3.072-4.06-5.632 0-1.654 1.346-3 3.084-3 1.608 0 2.916 1.308 2.916 2.916v.117c0 .542-.413.967-.94.967-.584 0-1.06-.476-1.06-1.06v-.94h-2v.94c0 1.687 1.373 3.06 3.06 3.06 1.622 0 2.94-1.331 2.94-2.967v-.117c0-2.711-2.205-4.916-5-4.916-2.757 0-5 2.243-5 5 0 3.422 2.181 6.448 5.427 7.53l2.513.838c2.429.809 4.06 3.072 4.06 5.632 0 1.654-1.346 3-3 3s-3-1.346-3-3c0-.551.449-1 1-1s1 .449 1 1v1h2v-1c0-1.654-1.346-3-3-3s-3 1.346-3 3c0 2.757 2.243 5 5 5s5-2.243 5-5c0-3.421-2.181-6.448-5.427-7.53z" data-original="#000000" class="" data-old_color="#000000" fill="#333333"/></g></g> </svg>
