<?xml version="1.0"?>
<svg xmlns="http://www.w3.org/2000/svg" id="Layer_1" height="512px" viewBox="0 0 512 512" width="512px" data-name="Layer 1" class=""><g><path d="m23.132 443.08a5.538 5.538 0 1 0 -1.622 3.92 5.5 5.5 0 0 0 1.622-3.92z" data-original="#000000" class="" data-old_color="#000000" fill="#333333"/><path d="m216.495 413.843.002-.002.002-.002 14.365-14.364-18.304-18.305-15.792 15.792 18.304 18.304z" data-original="#000000" class="" data-old_color="#000000" fill="#333333"/><path d="m227.665 216.211-128.686 128.689 67.855 67.855 128.687-128.689c.055-.054.109-.11.164-.165.031-.036.058-.073.089-.109l.009.008a325.3 325.3 0 0 0 83.517-144.276 5.776 5.776 0 0 0 -7.09-7.089 325.291 325.291 0 0 0 -144.275 83.513l.007.009c-.034.03-.07.057-.1.087zm4.239 28.042 22.858-22.857 14.211-14.211a25.155 25.155 0 0 1 35.575 35.575l-14.211 14.211-22.856 22.855v.006l-45.719 45.718-22.86 22.86a5 5 0 0 1 -7.071 0l-28.5-28.5a5 5 0 0 1 0-7.071l22.861-22.86 22.855-22.855v-.006z" data-original="#000000" class="" data-old_color="#000000" fill="#333333"/><path d="m221.971 477.136a14.863 14.863 0 1 0 -29.051-5.878l-2.343 18.915 18.919-2.342a14.839 14.839 0 0 0 12.475-10.695z" data-original="#000000" class="" data-old_color="#000000" fill="#333333"/><path d="m74.5 225.109a44.04 44.04 0 0 1 45.022 44.405v.545a4.981 4.981 0 0 1 -1 2.926l19.111 19.115 62.145-62.146a63.354 63.354 0 0 1 -57.939-17.054 52.838 52.838 0 0 0 -25.769-14.25 4.983 4.983 0 0 1 -2.529-.508 53.76 53.76 0 0 0 -9.319-.824 52.848 52.848 0 0 0 -37.622 15.582l-4.085 4.085 9.12 9.12a4.98 4.98 0 0 1 2.865-.996z" data-original="#000000" class="" data-old_color="#000000" fill="#333333"/><path d="m297.486 235.679a15.155 15.155 0 0 0 -21.433-21.433l-10.678 10.678 21.434 21.433z" data-original="#000000" class="" data-old_color="#000000" fill="#333333"/><path d="m54.555 257.743h18.218v46.436h-18.218z" transform="matrix(.707 -.707 .707 .707 -180.022 127.309)" data-original="#000000" class="" data-old_color="#000000" fill="#333333"/><path d="m221.281 423.93h18.218v47.514h-18.218z" transform="matrix(.707 -.707 .707 .707 -249.084 294.037)" data-original="#000000" class="" data-old_color="#000000" fill="#333333"/><path d="m249.958 235.452h22.333v30.311h-22.333z" transform="matrix(.707 -.707 .707 .707 -100.724 258.048)" data-original="#000000" class="" data-old_color="#000000" fill="#333333"/><path d="m181.37 304.04h22.333v30.311h-22.333z" transform="matrix(.707 -.707 .707 .707 -169.311 229.63)" data-original="#000000" class="" data-old_color="#000000" fill="#333333"/><path d="m204.233 281.177h22.333v30.31h-22.333z" transform="matrix(.707 -.707 .707 .707 -146.449 239.101)" data-original="#000000" class="" data-old_color="#000000" fill="#333333"/><path d="m227.096 258.314h22.333v30.311h-22.333z" transform="matrix(.707 -.707 .707 .707 -123.587 248.578)" data-original="#000000" class="" data-old_color="#000000" fill="#333333"/><path d="m480.318 113.605q4.13-14.177 7.494-28.654c-31.478-3.735-57.3-29.552-61.031-61.03q-14.475 3.363-28.654 7.493a93.81 93.81 0 0 0 27.073 55.116 93.819 93.819 0 0 0 55.118 27.075z" data-original="#000000" class="" data-old_color="#000000" fill="#333333"/><path d="m97 294.472v.001.001l-1.36 1.424 19.132 19.067 15.858-15.792-19.199-19.067z" data-original="#000000" class="" data-old_color="#000000" fill="#333333"/><path d="m40.921 230.076h22.333v12.828h-22.333z" transform="matrix(.707 -.707 .707 .707 -151.973 106.106)" data-original="#000000" class="" data-old_color="#000000" fill="#333333"/><path d="m276.642 435.034a34.043 34.043 0 0 0 -33.623-33.572l-15.919 15.915 33.6 33.6z" data-original="#000000" class="" data-old_color="#000000" fill="#333333"/><path d="m481.817 12.128-44.917 9.532-.3.066c2.773 27.772 25.635 50.633 53.406 53.406.021-.1.045-.2.066-.3l9.528-44.917a15 15 0 0 0 -17.787-17.787z" data-original="#000000" class="" data-old_color="#000000" fill="#333333"/><path d="m53.548 308.714a14.864 14.864 0 1 0 -29.048-5.879l-2.342 18.916 18.918-2.342a14.838 14.838 0 0 0 12.472-10.695z" data-original="#000000" class="" data-old_color="#000000" fill="#333333"/><path d="m221.115 208.628a335.314 335.314 0 0 1 148.472-85.844 15.777 15.777 0 0 1 19.361 19.361 335.324 335.324 0 0 1 -85.848 148.474 53.339 53.339 0 0 0 2.8 72.2 63.041 63.041 0 0 1 14.279 21.9l77.6-104.9a525.571 525.571 0 0 0 79.621-156.527 103.9 103.9 0 0 1 -59.269-29.692 103.91 103.91 0 0 1 -29.692-59.273 525.566 525.566 0 0 0 -156.532 79.621l-104.9 77.605a63.023 63.023 0 0 1 21.9 14.277 53.337 53.337 0 0 0 72.208 2.798zm126.185 116.814a5 5 0 0 1 -7.071 0l-13.717-13.717a5 5 0 1 1 7.07-7.071l13.718 13.717a5 5 0 0 1 0 7.071zm15.242-22.862a5 5 0 0 1 -7.07 0l-17.529-17.528a5 5 0 1 1 7.071-7.072l17.528 17.529a5 5 0 0 1 .003 7.071zm16-22.1a5 5 0 0 1 -7.07 0l-22.1-22.1a5 5 0 0 1 7.07-7.071l22.1 22.1a5 5 0 0 1 .007 7.07zm-147.3-147.3a5 5 0 0 1 7.07 0l22.1 22.1a5 5 0 0 1 -7.071 7.071l-22.1-22.1a5 5 0 0 1 .012-7.068zm-22.1 16a5 5 0 0 1 7.071 0l17.528 17.528a5 5 0 1 1 -7.07 7.072l-17.529-17.529a5 5 0 0 1 .01-7.064zm-22.852 15.249a5 5 0 0 1 7.07 0l13.718 13.717a5 5 0 1 1 -7.07 7.072l-13.718-13.718a5 5 0 0 1 0-7.071z" data-original="#000000" class="" data-old_color="#000000" fill="#333333"/><path d="m219.63 374.142 18.355 18.586a4.776 4.776 0 0 1 2.971-.728h.017l1.779-.267a43.739 43.739 0 0 1 43.887 44.491l-.016 1a4.947 4.947 0 0 1 -1 2.883l9.12 9.115 4.086-4.089a52.852 52.852 0 0 0 15.582-37.618 53.844 53.844 0 0 0 -.824-9.317 5 5 0 0 1 -.509-2.53 52.823 52.823 0 0 0 -14.248-25.768 63.338 63.338 0 0 1 -17.055-57.928z" data-original="#000000" class="" data-old_color="#000000" fill="#333333"/><path d="m76.672 235.117-15.913 15.914 32.835 32.835 15.909-15.91a34.046 34.046 0 0 0 -32.831-32.839z" data-original="#000000" class="" data-old_color="#000000" fill="#333333"/><path d="m264.076 453.231h22.332v12.827h-22.332z" transform="matrix(.707 -.707 .707 .707 -244.4 329.246)" data-original="#000000" class="" data-old_color="#000000" fill="#333333"/><path d="m79.084 464.927a5.133 5.133 0 0 0 5.081 5.073h8.6a48.382 48.382 0 0 0 11.266-1.284 5 5 0 0 0 -2.33-9.725 38.353 38.353 0 0 1 -8.935 1.009h-8.766v-.146a4.845 4.845 0 0 0 -4.916 5.073z" data-original="#000000" class="" data-old_color="#000000" fill="#333333"/><path d="m119.786 455.962a5 5 0 0 0 7.07 0 47.913 47.913 0 0 0 14.123-34.1 48.517 48.517 0 0 0 -.375-5.973c-.182-1.51-.445-3.041-.782-4.554a48.271 48.271 0 0 0 -36.306-36.474c-1.565-.354-3.135-.631-4.652-.82a47.661 47.661 0 0 0 -39.794 13.63 48.6 48.6 0 0 0 -14.52 34.709 5 5 0 0 0 4.873 5l4.992.126a51.662 51.662 0 0 0 -9.767 38.51 4.965 4.965 0 0 0 4.9 3.984h14.91a5 5 0 0 0 0-10h-10.383a43.477 43.477 0 0 1 14.8-33.5 4.979 4.979 0 0 0 -3.182-8.716l-10.842-.27a38.27 38.27 0 0 1 11.261-22.571 37.491 37.491 0 0 1 26.668-10.943h.289a35.576 35.576 0 0 1 4.107.091 24.571 24.571 0 0 0 -13.252 18.957l-3.13 25.24a4.98 4.98 0 0 0 4.962 5.582 5.082 5.082 0 0 0 .614-.043l25.284-3.134a24.807 24.807 0 0 0 19.046-13.315 38.57 38.57 0 0 1 .276 4.492 37.978 37.978 0 0 1 -11.193 27.021 5 5 0 0 0 .003 7.071z" data-original="#000000" class="" data-old_color="#000000" fill="#333333"/><path d="m159.286 442.19a48.124 48.124 0 0 0 .587-5.951 45.776 45.776 0 0 0 -.039-4.623 5 5 0 1 0 -9.982.581 36.57 36.57 0 0 1 .029 3.658 38.151 38.151 0 0 1 -15.851 29.613 5 5 0 1 0 5.846 8.114 47.916 47.916 0 0 0 19.41-31.392z" data-original="#000000" class="" data-old_color="#000000" fill="#333333"/><path d="m35.714 385.069a5 5 0 1 0 9.349 3.549c5.94-15.647 21.527-25.924 37.91-24.994a5 5 0 1 0 .568-9.983c-20.69-1.185-40.356 11.747-47.827 31.428z" data-original="#000000" class="" data-old_color="#000000" fill="#333333"/><path d="m95.6 489.842a6.078 6.078 0 1 0 8.593 0 6.034 6.034 0 0 0 -8.593 0z" data-original="#000000" class="" data-old_color="#000000" fill="#333333"/><path d="m25.214 422.034a7.152 7.152 0 1 0 -5.06-2.092 7.128 7.128 0 0 0 5.06 2.092z" data-original="#000000" class="" data-old_color="#000000" fill="#333333"/><path d="m175.346 441.759a5.5 5.5 0 0 0 3.912-1.618l.009-.008a5.539 5.539 0 0 0 -3.921-9.451 5.539 5.539 0 1 0 0 11.077z" data-original="#000000" class="" data-old_color="#000000" fill="#333333"/></g> </svg>
